<?xml version="1.0" encoding="UTF-8"?>
<svg version="1.1" xmlns="http://www.w3.org/2000/svg" width="200" height="200">
<path d="M0 0 C66 0 132 0 200 0 C200 66 200 132 200 200 C134 200 68 200 0 200 C0 134 0 68 0 0 Z " fill="#000000" transform="translate(0,0)"/>
<path d="M0 0 C1.19496094 -0.00386719 2.38992187 -0.00773437 3.62109375 -0.01171875 C4.87019531 -0.00011719 6.11929688 0.01148437 7.40625 0.0234375 C8.65535156 0.01183594 9.90445313 0.00023438 11.19140625 -0.01171875 C12.98384766 -0.00591797 12.98384766 -0.00591797 14.8125 0 C15.90884766 0.00338379 17.00519531 0.00676758 18.13476562 0.01025391 C20.90625 0.3984375 20.90625 0.3984375 22.76220703 1.80224609 C24.1885775 3.79234641 24.30889647 4.96554857 24.28125 7.3984375 C24.29285156 8.419375 24.29285156 8.419375 24.3046875 9.4609375 C23.77124294 12.0549424 23.01811956 12.80106182 20.90625 14.3984375 C18.13476562 14.78662109 18.13476562 14.78662109 14.8125 14.796875 C13.61753906 14.80074219 12.42257813 14.80460937 11.19140625 14.80859375 C9.94230469 14.79699219 8.69320312 14.78539063 7.40625 14.7734375 C6.15714844 14.78503906 4.90804688 14.79664062 3.62109375 14.80859375 C1.82865234 14.80279297 1.82865234 14.80279297 0 14.796875 C-1.09634766 14.79349121 -2.19269531 14.79010742 -3.32226562 14.78662109 C-6.09375 14.3984375 -6.09375 14.3984375 -7.94970703 12.99462891 C-9.3760775 11.00452859 -9.49639647 9.83132643 -9.46875 7.3984375 C-9.47648437 6.7178125 -9.48421875 6.0371875 -9.4921875 5.3359375 C-8.42014757 0.12288057 -4.67985039 0.01444398 0 0 Z " fill="#FBFBFB" transform="translate(26.09375,92.6015625)"/>
<path d="M0 0 C1.625 1.5 1.625 1.5 3 3 C4.32 3 5.64 3 7 3 C7 4.32 7 5.64 7 7 C7.66 7 8.32 7 9 7 C9 5.35 9 3.7 9 2 C12.16115776 3.36983503 12.9927092 3.9890638 15 7 C15.33 5.35 15.66 3.7 16 2 C17.32 2 18.64 2 20 2 C20.33 5.63 20.66 9.26 21 13 C17.7 13 14.4 13 11 13 C10.67 11.35 10.34 9.7 10 8 C9.01 8.495 9.01 8.495 8 9 C8 10.32 8 11.64 8 13 C3.125 12.125 3.125 12.125 2 11 C1.67 11.66 1.34 12.32 1 13 C-2.53677664 13.32152515 -4.3962104 13.4131192 -7.375 11.375 C-9.46379841 8.32214079 -9.54068562 6.63031776 -9 3 C-6.79086995 -0.68188342 -4.01844539 -0.50230567 0 0 Z " fill="#161616" transform="translate(64,94)"/>
<path d="M0 0 C2.375 2 2.375 2 4 4 C4.99 3.34 5.98 2.68 7 2 C10.0625 2.1875 10.0625 2.1875 13 3 C15 6 15 6 14.8125 8.5625 C14 11 14 11 11 13 C7.16896958 12.68074747 5.23319447 12.15546298 2 10 C1.67 10.99 1.34 11.98 1 13 C-2.53677664 13.32152515 -4.3962104 13.4131192 -7.375 11.375 C-9.46379841 8.32214079 -9.54068562 6.63031776 -9 3 C-6.79244709 -0.67925486 -4.01747809 -0.57392544 0 0 Z " fill="#161616" transform="translate(110,94)"/>
<path d="M0 0 C2.95857409 -0.05379226 5.91617721 -0.09357093 8.875 -0.125 C9.71675781 -0.14175781 10.55851562 -0.15851563 11.42578125 -0.17578125 C12.23144531 -0.18222656 13.03710938 -0.18867187 13.8671875 -0.1953125 C14.98262939 -0.21102295 14.98262939 -0.21102295 16.12060547 -0.22705078 C18 0 18 0 20 2 C20.265625 3.875 20.265625 3.875 20.25 6 C20.25515625 6.70125 20.2603125 7.4025 20.265625 8.125 C20 10 20 10 18 12 C15.28545044 12.32752234 12.74769241 12.1308425 10 12 C8.03177114 10.03177114 8.33751619 6.65191291 8 4 C6.68 4 5.36 4 4 4 C1.75 3 1.75 3 0 2 C0 1.34 0 0.68 0 0 Z " fill="#FAFBFB" transform="translate(30,94)"/>
<path d="M0 0 C3.16115776 1.36983503 3.9927092 1.9890638 6 5 C6.33 3.35 6.66 1.7 7 0 C8.32 0 9.64 0 11 0 C11.33 3.63 11.66 7.26 12 11 C8.7 11 5.4 11 2 11 C1.67 9.35 1.34 7.7 1 6 C0.01 6.495 0.01 6.495 -1 7 C-1 8.32 -1 9.64 -1 11 C-2.32 10.67 -3.64 10.34 -5 10 C-4.835 9.2575 -4.67 8.515 -4.5 7.75 C-3.88074304 4.80993422 -3.88074304 4.80993422 -4 1 C-3.34 1 -2.68 1 -2 1 C-2 2.32 -2 3.64 -2 5 C-1.34 5 -0.68 5 0 5 C0 3.35 0 1.7 0 0 Z " fill="#444444" transform="translate(73,96)"/>
<path d="M0 0 C0.99 0.66 1.98 1.32 3 2 C3.40843923 4.71203652 3.13336867 7.2437142 3 10 C-1.29 10 -5.58 10 -10 10 C-10.29296875 3.9453125 -10.29296875 3.9453125 -10 2 C-6.31282562 -0.45811625 -4.35654296 -0.31118164 0 0 Z " fill="#035374" transform="translate(37,83)"/>
<path d="M0 0 C4.29 0 8.58 0 13 0 C13.25 6.625 13.25 6.625 11 10 C4.21615202 10.64608076 4.21615202 10.64608076 1 8.9375 C-0.52690415 5.97912322 -0.18468872 3.26283401 0 0 Z " fill="#035375" transform="translate(27,107)"/>
<path d="M0 0 C1.33599921 0.32248257 2.66893378 0.65772583 4 1 C5.32 1 6.64 1 8 1 C9.96822886 2.96822886 9.66248381 6.34808709 10 9 C12.31 9.33 14.62 9.66 17 10 C17 10.33 17 10.66 17 11 C8.09 11 -0.82 11 -10 11 C-10 10.67 -10 10.34 -10 10 C-6.7 9.67 -3.4 9.34 0 9 C0.16602736 5.26921798 0.16602736 5.26921798 -0.5625 2.8125 C-0.706875 2.214375 -0.85125 1.61625 -1 1 C-0.67 0.67 -0.34 0.34 0 0 Z " fill="#E4EBED" transform="translate(30,96)"/>
<path d="M0 0 C2.9375 0.8125 2.9375 0.8125 4.9375 3.8125 C4.75 6.375 4.75 6.375 3.9375 8.8125 C0.9375 10.8125 0.9375 10.8125 -2.1875 10.5 C-5.0625 9.8125 -5.0625 9.8125 -6.0625 8.8125 C-6.3125 5.375 -6.3125 5.375 -6.0625 1.8125 C-3.0625 -0.1875 -3.0625 -0.1875 0 0 Z " fill="#C1C1C1" transform="translate(120.0625,96.1875)"/>
<path d="M0 0 C1.60875 -0.04125 3.2175 -0.0825 4.875 -0.125 C5.77992188 -0.14820312 6.68484375 -0.17140625 7.6171875 -0.1953125 C10 0 10 0 12 2 C12.1953125 4.1640625 12.1953125 4.1640625 12.125 6.625 C12.10695312 7.44226563 12.08890625 8.25953125 12.0703125 9.1015625 C12.03550781 10.04128906 12.03550781 10.04128906 12 11 C10.35 11 8.7 11 7 11 C7.33 8.03 7.66 5.06 8 2 C6.68 2 5.36 2 4 2 C4 4.64 4 7.28 4 10 C3.01 10 2.02 10 1 10 C0.67 6.7 0.34 3.4 0 0 Z " fill="#B2B2B2" transform="translate(126,96)"/>
<path d="M0 0 C1.32 0.66 2.64 1.32 4 2 C4 4.64 4 7.28 4 10 C3.01 10 2.02 10 1 10 C1 8.68 1 7.36 1 6 C0.01 6.495 0.01 6.495 -1 7 C-1 8.32 -1 9.64 -1 11 C-2.32 10.67 -3.64 10.34 -5 10 C-4.835 9.2575 -4.67 8.515 -4.5 7.75 C-3.88074304 4.80993422 -3.88074304 4.80993422 -4 1 C-3.34 1 -2.68 1 -2 1 C-2 2.32 -2 3.64 -2 5 C-1.34 5 -0.68 5 0 5 C0 3.35 0 1.7 0 0 Z " fill="#BDBDBD" transform="translate(73,96)"/>
<path d="M0 0 C-1.98 0.99 -1.98 0.99 -4 2 C-4 4.97 -4 7.94 -4 11 C-2.68 11 -1.36 11 0 11 C0.66 10.34 1.32 9.68 2 9 C1.67 10.32 1.34 11.64 1 13 C-2.53677664 13.32152515 -4.3962104 13.4131192 -7.375 11.375 C-9.46379841 8.32214079 -9.54068562 6.63031776 -9 3 C-6.77089201 -0.71517998 -4.03410755 -0.2689405 0 0 Z " fill="#BFBFBF" transform="translate(110,94)"/>
<path d="M0 0 C0.33 0.99 0.66 1.98 1 3 C1.66 3.33 2.32 3.66 3 4 C2.34 4 1.68 4 1 4 C1 6.64 1 9.28 1 12 C1.66 12 2.32 12 3 12 C3 12.66 3 13.32 3 14 C-1.875 13.125 -1.875 13.125 -3 12 C-3.23192865 10.48530552 -3.41215238 8.96245438 -3.5625 7.4375 C-3.64628906 6.61121094 -3.73007813 5.78492187 -3.81640625 4.93359375 C-3.87699219 4.29550781 -3.93757812 3.65742187 -4 3 C-3.01 3 -2.02 3 -1 3 C-0.67 2.01 -0.34 1.02 0 0 Z " fill="#BDBDBD" transform="translate(180,93)"/>
<path d="M0 0 C-1.98 0.99 -1.98 0.99 -4 2 C-4 4.97 -4 7.94 -4 11 C-2.35 11 -0.7 11 1 11 C1 11.66 1 12.32 1 13 C-2.53677664 13.32152515 -4.3962104 13.4131192 -7.375 11.375 C-9.46379841 8.32214079 -9.54068562 6.63031776 -9 3 C-6.77089201 -0.71517998 -4.03410755 -0.2689405 0 0 Z " fill="#C5C5C5" transform="translate(64,94)"/>
<path d="M0 0 C2 2 2 2 2 5 C0.0625 4.625 0.0625 4.625 -2 4 C-2.33 3.34 -2.66 2.68 -3 2 C-3 4.64 -3 7.28 -3 10 C-6.875 9.125 -6.875 9.125 -8 8 C-8.29573841 5.19048514 -8.38243085 3.58371024 -6.8125 1.1875 C-4.3864306 -0.40199375 -2.84602594 -0.36487512 0 0 Z " fill="#C8C8C8" transform="translate(173,96)"/>
<path d="M0 0 C2.4375 0.8125 2.4375 0.8125 4.4375 2.8125 C4.4375 3.8025 4.4375 4.7925 4.4375 5.8125 C3.4475 5.8125 2.4575 5.8125 1.4375 5.8125 C1.1075 4.4925 0.7775 3.1725 0.4375 1.8125 C-0.2225 1.8125 -0.8825 1.8125 -1.5625 1.8125 C-1.89647787 4.68663125 -1.89647787 4.68663125 -1.5625 7.8125 C0.31827873 9.72506712 0.31827873 9.72506712 2.4375 10.8125 C-2.01186709 11.17325949 -2.01186709 11.17325949 -4.375 9.625 C-5.98775784 7.16342224 -5.9959014 5.70184264 -5.5625 2.8125 C-3.86282344 0.12880016 -3.19877434 -0.23405666 0 0 Z " fill="#DEDEDE" transform="translate(159.5625,96.1875)"/>
<path d="M0 0 C2.4375 0.8125 2.4375 0.8125 4.4375 2.8125 C4.4375 3.8025 4.4375 4.7925 4.4375 5.8125 C3.4475 5.8125 2.4575 5.8125 1.4375 5.8125 C1.1075 4.4925 0.7775 3.1725 0.4375 1.8125 C-0.2225 1.8125 -0.8825 1.8125 -1.5625 1.8125 C-1.96999675 6.06981568 -1.96999675 6.06981568 -0.0625 9.6875 C0.4325 10.05875 0.9275 10.43 1.4375 10.8125 C-1.5325 10.3175 -1.5325 10.3175 -4.5625 9.8125 C-5.89328101 3.40055513 -5.89328101 3.40055513 -4.4375 0.8125 C-2.5625 -0.1875 -2.5625 -0.1875 0 0 Z " fill="#E2E2E2" transform="translate(95.5625,96.1875)"/>
<path d="M0 0 C0.5775 0.165 1.155 0.33 1.75 0.5 C4.26664369 1.14462031 4.26664369 1.14462031 8 1 C7.60196439 3.88575819 7.20990931 4.82189513 4.9375 6.75 C4.298125 7.1625 3.65875 7.575 3 8 C0.9375 6.25 0.9375 6.25 -1 4 C-0.75 1.75 -0.75 1.75 0 0 Z " fill="#097B8B" transform="translate(30,96)"/>
<path d="M0 0 C4.875 0.875 4.875 0.875 6 2 C6.23192865 3.51469448 6.41215238 5.03754562 6.5625 6.5625 C6.64628906 7.38878906 6.73007813 8.21507813 6.81640625 9.06640625 C6.87699219 9.70449219 6.93757812 10.34257813 7 11 C5.02 11 3.04 11 1 11 C1.01160156 10.37351562 1.02320313 9.74703125 1.03515625 9.1015625 C1.04417969 8.28429687 1.05320313 7.46703125 1.0625 6.625 C1.07990234 5.40683594 1.07990234 5.40683594 1.09765625 4.1640625 C1.14466334 1.95062858 1.14466334 1.95062858 0 0 Z " fill="#BEBEBE" transform="translate(146,96)"/>
<path d="M0 0 C1.98 0.495 1.98 0.495 4 1 C4 4.3 4 7.6 4 11 C2.35 11 0.7 11 -1 11 C-0.67 7.37 -0.34 3.74 0 0 Z " fill="#C4C4C4" transform="translate(141,96)"/>
<path d="M0 0 C1.32 0 2.64 0 4 0 C4.1953125 6.0546875 4.1953125 6.0546875 4 8 C3.34 8.66 2.68 9.32 2 10 C-1.125 9.625 -1.125 9.625 -4 9 C-2.68 8.67 -1.36 8.34 0 8 C0 5.36 0 2.72 0 0 Z " fill="#292929" transform="translate(130,98)"/>
<path d="M0 0 C8.91 0 17.82 0 27 0 C27 0.33 27 0.66 27 1 C21.39 1 15.78 1 10 1 C9.67 2.32 9.34 3.64 9 5 C8.443125 4.525625 7.88625 4.05125 7.3125 3.5625 C4.81653926 1.87604004 2.9553763 1.41046893 0 1 C0 0.67 0 0.34 0 0 Z " fill="#E6EAEA" transform="translate(20,93)"/>
<path d="M0 0 C0.99 0.33 1.98 0.66 3 1 C3 3.31 3 5.62 3 8 C1.68 8 0.36 8 -1 8 C-1.04241723 5.66705225 -1.04092937 3.33297433 -1 1 C-0.67 0.67 -0.34 0.34 0 0 Z " fill="#060606" transform="translate(118,97)"/>
<path d="M0 0 C1.32 0.33 2.64 0.66 4 1 C3.67 3.64 3.34 6.28 3 9 C2.01 9 1.02 9 0 9 C0 6.03 0 3.06 0 0 Z " fill="#EEEEEE" transform="translate(127,97)"/>
<path d="M0 0 C0.99 0 1.98 0 3 0 C3 2.97 3 5.94 3 9 C2.01 9 1.02 9 0 9 C0 6.03 0 3.06 0 0 Z " fill="#F9F9F9" transform="translate(81,97)"/>
<path d="M0 0 C0.99 0.33 1.98 0.66 3 1 C3 2.32 3 3.64 3 5 C3.99 5.33 4.98 5.66 6 6 C3.69 6.33 1.38 6.66 -1 7 C-1.04254356 5.00045254 -1.04080783 2.99958364 -1 1 C-0.67 0.67 -0.34 0.34 0 0 Z " fill="#3D3D3D" transform="translate(158,97)"/>
<path d="M0 0 C0.99 0.33 1.98 0.66 3 1 C3 3.64 3 6.28 3 9 C2.01 9 1.02 9 0 9 C0 6.03 0 3.06 0 0 Z " fill="#F3F3F3" transform="translate(74,97)"/>
<path d="M0 0 C0.99 0.33 1.98 0.66 3 1 C3 2.32 3 3.64 3 5 C3.99 5.33 4.98 5.66 6 6 C4.824375 5.9690625 4.824375 5.9690625 3.625 5.9375 C1.01885039 5.81315937 1.01885039 5.81315937 -1 7 C-1.04254356 5.00045254 -1.04080783 2.99958364 -1 1 C-0.67 0.67 -0.34 0.34 0 0 Z " fill="#3B3B3B" transform="translate(94,97)"/>
<path d="M0 0 C0.66 0 1.32 0 2 0 C2 2.97 2 5.94 2 9 C1.01 8.67 0.02 8.34 -1 8 C-1.04241723 5.66705225 -1.04092937 3.33297433 -1 1 C-0.67 0.67 -0.34 0.34 0 0 Z " fill="#E5E5E5" transform="translate(115,97)"/>
<path d="M0 0 C0.99 0.66 1.98 1.32 3 2 C2.34 3.32 1.68 4.64 1 6 C-0.65 6 -2.3 6 -4 6 C-3.01 5.67 -2.02 5.34 -1 5 C-0.67 3.35 -0.34 1.7 0 0 Z " fill="#EEF6F3" transform="translate(29,100)"/>
<path d="M0 0 C1.98 0.66 3.96 1.32 6 2 C6 2.66 6 3.32 6 4 C5.01 4.33 4.02 4.66 3 5 C2.01 4.34 1.02 3.68 0 3 C0 2.01 0 1.02 0 0 Z " fill="#1D1D1D" transform="translate(94,102)"/>
<path d="M0 0 C4.75 0.75 4.75 0.75 7 3 C7 3.99 7 4.98 7 6 C6.01 6 5.02 6 4 6 C3.896875 5.38125 3.79375 4.7625 3.6875 4.125 C3.12474627 1.63473516 3.12474627 1.63473516 0 0 Z " fill="#D2D2D2" transform="translate(93,96)"/>
<path d="M0 0 C4.75 0.75 4.75 0.75 7 3 C7 3.99 7 4.98 7 6 C6.01 6 5.02 6 4 6 C3.896875 5.38125 3.79375 4.7625 3.6875 4.125 C3.12474627 1.63473516 3.12474627 1.63473516 0 0 Z " fill="#D6D6D6" transform="translate(157,96)"/>
</svg>
